<?xml version="1.0" encoding="UTF-8"?>
<svg version="1.1" xmlns="http://www.w3.org/2000/svg" width="180" height="180">
<path d="M0 0 C59.4 0 118.8 0 180 0 C180 59.4 180 118.8 180 180 C120.6 180 61.2 180 0 180 C0 120.6 0 61.2 0 0 Z " fill="#000000" transform="translate(0,0)"/>
<path d="M0 0 C19.8 0 39.6 0 60 0 C60 1.98 60 3.96 60 6 C57.03 6 54.06 6 51 6 C58.93191899 22.89204971 67.1294683 39.58007962 76 56 C76.27038086 55.43418213 76.54076172 54.86836426 76.81933594 54.28540039 C82.41260619 42.58196294 88.01257133 30.88176356 93.625 19.1875 C94.40568848 17.56050171 94.40568848 17.56050171 95.20214844 15.90063477 C95.68458008 14.89572998 96.16701172 13.8908252 96.6640625 12.85546875 C97.09154785 11.96496826 97.5190332 11.07446777 97.95947266 10.15698242 C98.63014558 8.76669727 99.30968196 7.38063608 100 6 C95.71 6 91.42 6 87 6 C87 4.02 87 2.04 87 0 C97.89 0 108.78 0 120 0 C120 2.31 120 4.62 120 7 C115.71 7 111.42 7 107 7 C106.34 8.98 105.68 10.96 105 13 C103.90573722 15.40201088 102.78813019 17.77111455 101.62109375 20.13671875 C101.12465111 21.15509575 101.12465111 21.15509575 100.61817932 22.19404602 C99.56144863 24.3602596 98.4997469 26.52398686 97.4375 28.6875 C96.75158451 30.08901236 96.066035 31.4907039 95.38085938 32.89257812 C95.03987717 33.58870712 94.69889496 34.28483612 94.34757996 35.00205994 C93.64742105 36.44057796 92.95362197 37.88220676 92.26582336 39.32667542 C90.46886512 43.08593266 88.59703255 46.74242208 86.50268555 50.34545898 C78.76962411 64.15092736 78.74923242 77.13491506 78.9375 92.6875 C78.93441751 95.15430534 78.92728245 97.62110908 78.91601562 100.08789062 C78.89739732 106.05960454 78.93323645 112.02865547 79 118 C83.29 118 87.58 118 92 118 C92 119.98 92 121.96 92 124 C71.87 124 51.74 124 31 124 C31 122.02 31 120.04 31 118 C35.29 118 39.58 118 44 118 C45.68596597 82.66425456 45.68596597 82.66425456 33.50195312 50.42431641 C30.86654506 46.17047991 28.89004704 41.60700673 26.8125 37.0625 C22.67264108 28.30860248 18.36886552 19.641359 14 11 C13.58621094 9.81857422 13.58621094 9.81857422 13.1640625 8.61328125 C12.04269876 6.68004526 12.04269876 6.68004526 9.1796875 6.390625 C8.08914062 6.34421875 6.99859375 6.2978125 5.875 6.25 C4.23144531 6.16492187 4.23144531 6.16492187 2.5546875 6.078125 C1.71164063 6.05234375 0.86859375 6.0265625 0 6 C0 4.02 0 2.04 0 0 Z " fill="#FBFBFB" transform="translate(30,28)"/>
</svg>
